<?xml version="1.0" encoding="UTF-8"?>
<svg width="12" height="12" viewBox="0 0 120 120" version="1.1" xmlns="http://www.w3.org/2000/svg" xmlns:xlink="http://www.w3.org/1999/xlink">
    <g id="oss" stroke="none" stroke-width="1" fill="none" fill-rule="evenodd">
        <circle id="Oval" fill="#3DA638" cx="60" cy="60" r="60"></circle>
        <path d="M65.2252736,44.5119738 C70.8764399,46.6120154 73.82657,50.6559813 73.82657,57.6161771 C73.82657,64.5763729 67.9646321,70.7094249 60.6402863,70.7217512 C52.9108212,70.7340758 47.0803609,64.6017074 47.1734293,57.6161771 C47.2664977,50.6306468 50.5964291,45.9834405 55.9252784,44.303133 L46.4849966,21.0650486 C33.8502796,24.3380183 21,39.2519422 21,57.6161771 C21,79.3670469 38.4667453,97 60.359713,97 C82.2526807,97 100,79.3670469 100,57.6161771 C100,38.9664126 87.2715304,24.2599599 74.3671883,21 L65.2252736,44.5119738 Z" id="path2" fill="#FFFFFF" fill-rule="nonzero" transform="translate(60.500000, 59.000000) scale(-1, 1) rotate(-180.000000) translate(-60.500000, -59.000000) "></path>
    </g>
</svg>