<?xml version="1.0" encoding="UTF-8"?>
<svg width="12" height="12" viewBox="0 0 120 120" version="1.1" xmlns="http://www.w3.org/2000/svg" xmlns:xlink="http://www.w3.org/1999/xlink">
    <g id="qmk" stroke="none" stroke-width="1" fill="none" fill-rule="evenodd">
        <circle id="Oval" fill="#2E2E2E" cx="60" cy="60" r="60"></circle>
        <path d="M83.7185,97.361 L99.7385,94.869 L88.3465,82.943 C91.1945,79.8576667 93.375,76.3273333 94.888,72.352 C96.401,68.3766667 97.1575,64.075 97.1575,59.447 C97.1575,54.463 96.2378333,49.8201667 94.3985,45.5185 C92.5591667,41.2168333 89.993,37.464 86.7,34.26 C83.407,31.056 79.4761667,28.5491667 74.9075,26.7395 C70.3388333,24.9298333 65.3548333,24.025 59.9555,24.025 C54.4968333,24.025 49.498,24.9298333 44.959,26.7395 C40.42,28.5491667 36.5188333,31.056 33.2555,34.26 C29.9921667,37.464 27.4408333,41.2168333 25.6015,45.5185 C23.7621667,49.8201667 22.8425,54.463 22.8425,59.447 C22.8425,64.431 23.7621667,69.0738333 25.6015,73.3755 C27.4408333,77.6771667 29.9921667,81.43 33.2555,84.634 C36.5188333,87.838 40.42,90.3448333 44.959,92.1545 C49.498,93.9641667 54.4968333,94.869 59.9555,94.869 C63.2188333,94.869 66.319,94.5278333 69.256,93.8455 C72.193,93.1631667 74.9668333,92.2286667 77.5775,91.042 L77.5775,91.042 L83.7185,97.361 Z M59.9555,77.959 C57.4041667,77.959 54.9863333,77.4991667 52.702,76.5795 C50.4176667,75.6598333 48.4151667,74.3693333 46.6945,72.708 C44.9738333,71.0466667 43.6091667,69.0886667 42.6005,66.834 C41.5918333,64.5793333 41.0875,62.117 41.0875,59.447 C41.0875,56.777 41.5918333,54.3146667 42.6005,52.06 C43.6091667,49.8053333 44.9738333,47.8473333 46.6945,46.186 C48.4151667,44.5246667 50.4176667,43.2341667 52.702,42.3145 C54.9863333,41.3948333 57.4041667,40.935 59.9555,40.935 C62.5068333,40.935 64.9246667,41.3948333 67.209,42.3145 C69.4933333,43.2341667 71.5106667,44.5246667 73.261,46.186 C75.0113333,47.8473333 76.3908333,49.8053333 77.3995,52.06 C78.4081667,54.3146667 78.9125,56.777 78.9125,59.447 C78.9125,63.363 77.8445,66.8043333 75.7085,69.771 L75.7085,69.771 L71.0805,64.876 L54.6155,66.923 L64.5835,77.425 C63.0408333,77.781 61.4981667,77.959 59.9555,77.959 Z" id="Q" fill="#FFFFFF" fill-rule="nonzero"></path>
    </g>
</svg>