<?xml version="1.0" encoding="UTF-8"?>
<svg width="12" height="12" viewBox="0 0 120 120" version="1.1" xmlns="http://www.w3.org/2000/svg" xmlns:xlink="http://www.w3.org/1999/xlink">
    <g id="separated" stroke="none" stroke-width="1" fill="none" fill-rule="evenodd">
        <circle id="Oval" fill="#7A33E4" cx="60" cy="60" r="60"></circle>
        <g id="Group" transform="translate(21.000000, 34.000000)" fill="#FFFFFF">
            <path d="M2,0 L33,0 C34.1045695,-2.02906125e-16 35,0.8954305 35,2 L35,25.9824561 C35,27.0870256 34.1045695,27.9824561 33,27.9824561 L30.1944444,27.9824561 C29.0898749,27.9824561 28.1944444,28.8778866 28.1944444,29.9824561 L28.1944444,53 C28.1944444,54.1045695 27.2990139,55 26.1944444,55 L2,55 C0.8954305,55 1.3527075e-16,54.1045695 0,53 L0,2 C-1.3527075e-16,0.8954305 0.8954305,2.02906125e-16 2,0 Z" id="Path"></path>
            <path d="M77,55 L46,55 C44.8954305,55 44,54.1045695 44,53 L44,29.0175439 C44,27.9129744 44.8954305,27.0175439 46,27.0175439 L48.8055556,27.0175439 C49.9101251,27.0175439 50.8055556,26.1221134 50.8055556,25.0175439 L50.8055556,2 C50.8055556,0.8954305 51.7009861,1.18396092e-15 52.8055556,0 L77,0 C78.1045695,-2.02906125e-16 79,0.8954305 79,2 L79,53 C79,54.1045695 78.1045695,55 77,55 Z" id="Path"></path>
        </g>
    </g>
</svg>