<?xml version="1.0" encoding="UTF-8"?>
<svg width="12" height="12" viewBox="0 0 120 120" version="1.1" xmlns="http://www.w3.org/2000/svg" xmlns:xlink="http://www.w3.org/1999/xlink">
    <g id="shop" stroke="none" stroke-width="1" fill="none" fill-rule="evenodd">
        <circle id="Oval" fill="#F59023" cx="60" cy="60" r="60"></circle>
        <path d="M79.4190909,48.7428872 L63.0936364,24.5489989 C62.3854545,23.516333 61.1927273,23 60,23 C58.8072727,23 57.6145455,23.516333 56.9063636,24.5858799 L40.5809091,48.7428872 L22.7272727,48.7428872 C20.6772727,48.7428872 19,50.402529 19,52.43098 C19,52.7629083 19.0372727,53.0948367 19.1490909,53.426765 L28.6163636,87.6153846 C29.4736364,90.7133825 32.3436364,93 35.7727273,93 L84.2272727,93 C87.6563636,93 90.5263636,90.7133825 91.4209091,87.6153846 L100.888182,53.426765 L101,52.43098 C101,50.402529 99.3227273,48.7428872 97.2727273,48.7428872 L79.4190909,48.7428872 Z M49,49 L60.5,33 L72,49 L49,49 Z M60,77 C56.15,77 53,73.85 53,70 C53,66.15 56.15,63 60,63 C63.85,63 67,66.15 67,70 C67,73.85 63.85,77 60,77 Z" id="Shape" fill="#FFFFFF" fill-rule="nonzero"></path>
    </g>
</svg>